<?xml version="1.0" standalone="no"?>
<!DOCTYPE svg PUBLIC "-//W3C//DTD SVG 20010904//EN"
 "http://www.w3.org/TR/2001/REC-SVG-20010904/DTD/svg10.dtd">
<svg version="1.0" xmlns="http://www.w3.org/2000/svg"
 width="1188.000000pt" height="1188.000000pt" viewBox="0 0 1188.000000 1188.000000"
 preserveAspectRatio="xMidYMid meet">
<metadata>
Created by potrace 1.11, written by Peter Selinger 2001-2013
</metadata>
<g transform="translate(0.000000,1188.000000) scale(0.100000,-0.100000)"
fill="#000000" stroke="none">
<path d="M4905 8635 l-1120 -1124 -522 522 c-286 287 -535 535 -551 551 l-30
28 -1234 -1236 c-678 -680 -1238 -1242 -1244 -1249 -6 -7 -24 -24 -40 -38 -16
-14 -53 -51 -82 -82 -30 -32 -58 -57 -63 -57 -5 0 -9 -5 -9 -11 0 -12 2667
-2679 2679 -2679 3 0 248 243 544 540 296 296 542 542 548 546 6 3 512 -496
1126 -1110 613 -614 1121 -1116 1128 -1116 8 0 492 481 1077 1070 585 588
1068 1070 1073 1070 6 0 222 -213 482 -473 259 -259 485 -484 500 -500 29 -27
29 -27 49 -8 10 10 613 614 1339 1341 l1319 1321 -1336 1335 c-736 733 -1342
1334 -1347 1334 -5 0 -231 -223 -503 -495 -271 -272 -497 -495 -503 -495 -5 0
-494 482 -1085 1070 l-1075 1070 -1120 -1125z"/>
</g>
</svg>
